<svg id="Layer_1" data-name="Layer 1" xmlns="http://www.w3.org/2000/svg" viewBox="0 0 245 316"><defs><style>.cls-1{fill:#000d46;}.cls-1,.cls-6{stroke:#fff;}.cls-1,.cls-2,.cls-6,.cls-7{stroke-miterlimit:10;}.cls-2,.cls-3{fill:#fff;}.cls-2{stroke:#000d46;}.cls-4{fill:#3543dd;}.cls-5{fill:#000645;}.cls-6{fill:#000149;}.cls-7{fill:none;stroke:#000645;}</style></defs><title>Untitled-2</title><circle class="cls-1" cx="122.5" cy="193.5" r="122"/><circle class="cls-2" cx="123" cy="194" r="109.5"/><circle class="cls-1" cx="124.5" cy="194.5" r="72"/><path class="cls-3" d="M93.59,236.55,104,204.89l23.62-6.84,3.75,3.59-12.22,9.44-5.74,2.35-1.26,6.12,7.16-1.73,1-5.11,11.89-9.77,3.58,3.42q-4.31,10.59-8.63,21.17Z" transform="translate(-6 -5)"/><polygon class="cls-3" points="121.96 191.42 131.09 200.95 135.39 196.82 127.4 187.63 121.96 191.42"/><path class="cls-3" d="M135.77,190.7l27.24-33,11.44-1.36-.27,10.89L143.4,199.69Q139.59,195.19,135.77,190.7Z" transform="translate(-6 -5)"/><circle class="cls-3" cx="84" cy="234" r="2"/><path class="cls-4" d="M93.58,238.63l65.55-16.34c-2.69,2.15-6.25,5.51-5.51,8.36,1.24,4.8,13.7,4.91,13.68,5.8C167.27,238,132.52,238.48,93.58,238.63Z" transform="translate(-6 -5)"/><path d="M30.69,194.48c.24-2.49.56-4.92.94-7.3l11.59,2.34a2,2,0,0,1,1.31.88,4.58,4.58,0,0,1,.67,1.82,14.47,14.47,0,0,1,.17,2.6c0,1-.07,2.08-.17,3.28s-.21,2.27-.36,3.29a16.59,16.59,0,0,1-.6,2.67,5.41,5.41,0,0,1-1,1.83,1.81,1.81,0,0,1-1.44.68H30.13c0-2.68.07-5.31.23-7.89l12,1a.72.72,0,0,0,.71-.37,3.26,3.26,0,0,0,.33-1.37c.1-1.23-.14-1.87-.74-1.95Z" transform="translate(-6 -5)"/><path d="M48.52,178.24,37,174.13c-.58-.21-1.07.32-1.44,1.62s-.24,2.05.34,2.23l11.62,3.62c-.51,1.94-1,3.94-1.36,6l-11.53-2.69a1.87,1.87,0,0,1-1.26-1,5.36,5.36,0,0,1-.51-2.15,14.63,14.63,0,0,1,.18-3,27.66,27.66,0,0,1,.79-3.55A26.16,26.16,0,0,1,35,171.85a12.61,12.61,0,0,1,1.37-2.46,4.45,4.45,0,0,1,1.5-1.36,1.79,1.79,0,0,1,1.58,0l10.94,4.78C49.73,174.55,49.09,176.37,48.52,178.24Z" transform="translate(-6 -5)"/><path d="M51.36,170.44,38.15,164.2c.86-2,1.79-4,2.77-6l12.81,7.13C52.89,167,52.1,168.69,51.36,170.44Z" transform="translate(-6 -5)"/><path d="M56.39,160.57q-7.2-2.3-14.66-3.91,1.53-2.85,3.22-5.55,5.77,2.08,11.38,4.49-4.14-4.59-8-9.44c1.18-1.62,2.4-3.2,3.67-4.72q4.1,6.62,8.7,12.77A72.88,72.88,0,0,0,56.39,160.57Z" transform="translate(-6 -5)"/><path d="M64,150.11l-11.06-9.78a88.84,88.84,0,0,1,9.59-9.52c.43.51.87,1,1.31,1.52-1.82,1.56-3.59,3.2-5.29,4.91l2.63,2.63c1.59-1.61,3.23-3.13,4.94-4.59l1.27,1.47c-1.66,1.43-3.28,2.93-4.84,4.49l3.59,3.58q2.28-2.3,4.74-4.38L72.2,142A75.89,75.89,0,0,0,64,150.11Z" transform="translate(-6 -5)"/><path d="M80.21,136l-2.86-4.23c-.52-.78-1.37-.8-2.5,0l-1,.7,3.84,5.26q-2.11,1.5-4.14,3.15l-7.73-9.34a2,2,0,0,1-.47-1.52,4,4,0,0,1,.69-1.76,10.21,10.21,0,0,1,1.69-1.91,23.41,23.41,0,0,1,2.46-1.93,20.9,20.9,0,0,1,2.6-1.52,9.41,9.41,0,0,1,2.27-.8,3.8,3.8,0,0,1,1.82,0,2.12,2.12,0,0,1,1.23,1l1.24,2.07a1.8,1.8,0,0,1,0,1.86,7.28,7.28,0,0,1-2.27,2.17,8,8,0,0,1,3-1.1,1.53,1.53,0,0,1,1.57.67l2.75,4.64Q82.29,134.64,80.21,136Zm-6.95-10.28c-.35-.52-1-.46-2,.2s-1.26,1.25-.89,1.75l2.49,3.43,1-.71A3.31,3.31,0,0,0,75,129.28a1.08,1.08,0,0,0-.11-1.16Z" transform="translate(-6 -5)"/><path d="M96.85,125.1a2.23,2.23,0,0,1-.75,2.63A16.11,16.11,0,0,1,92,130.12a23.94,23.94,0,0,1-2.37.93,8.21,8.21,0,0,1-2,.42,3.44,3.44,0,0,1-1.61-.24,2.44,2.44,0,0,1-1.14-1.07c-.39-.71-.79-1.41-1.19-2.11q2.22-1.2,4.5-2.27c.41.82.81,1.64,1.21,2.46.28.55.88.61,1.81.19a2.07,2.07,0,0,0,1-.7.94.94,0,0,0,0-1l-.53-1.17a1.7,1.7,0,0,0-.61-.69,2.43,2.43,0,0,0-1.2-.36c-1.73-.1-3.49-.16-5.26-.17a6.43,6.43,0,0,1-2.19-.26A2.35,2.35,0,0,1,81.1,123l-.71-1.27a2.31,2.31,0,0,1,.47-2.93,14.8,14.8,0,0,1,4.71-3,21.87,21.87,0,0,1,2.82-1,9.07,9.07,0,0,1,2.36-.38,3.61,3.61,0,0,1,1.76.36,2.15,2.15,0,0,1,1,1.2l.68,1.8q-2.5.9-5,1.94l-.91-2c-.25-.57-.91-.63-2-.16s-1.45,1-1.15,1.64l.44.91a2.63,2.63,0,0,0,.29.46,1.12,1.12,0,0,0,.35.3,1.57,1.57,0,0,0,.49.15,5.72,5.72,0,0,0,.7.06c1.9.06,3.79.17,5.64.35a4.45,4.45,0,0,1,2,.58,2.72,2.72,0,0,1,1.11,1.41Z" transform="translate(-6 -5)"/><path d="M99.85,126.58q-2.44-7-4.88-13.9,2.86-1,5.79-1.75,2,7.08,4,14.16Q102.3,125.77,99.85,126.58Z" transform="translate(-6 -5)"/><path d="M110.2,123.81l-2.7-12.55c-1.56.32-3.12.68-4.67,1.07l-.48-1.81a108.89,108.89,0,0,1,15.55-2.77l.19,1.87c-1.58.17-3.16.37-4.73.6l1.93,12.69C113.58,123.17,111.88,123.47,110.2,123.81Z" transform="translate(-6 -5)"/><path d="M124.31,122l-.24-5.52q-2.75-4.47-6-8.77c2-.21,4.1-.37,6.16-.46q1.64,3.09,3.08,6.23c.93-2.13,1.91-4.25,3-6.35,1.83,0,3.67.07,5.5.17q-3.31,4.44-6.08,9c0,1.85-.07,3.69-.11,5.54C127.84,121.89,126.07,121.93,124.31,122Z" transform="translate(-6 -5)"/><path d="M144.54,110.85a2.07,2.07,0,0,1,.85-1.37,4.18,4.18,0,0,1,1.81-.69,10.64,10.64,0,0,1,2.57-.07,21.75,21.75,0,0,1,3.1.46,21.31,21.31,0,0,1,3,.84,9.82,9.82,0,0,1,2.25,1.12,3.92,3.92,0,0,1,1.29,1.36,1.88,1.88,0,0,1,.09,1.58l-3.07,9a2.32,2.32,0,0,1-1,1.27,4.16,4.16,0,0,1-1.67.54,10.13,10.13,0,0,1-2.19,0c-.81-.09-1.67-.24-2.57-.43s-1.78-.43-2.56-.68a9.81,9.81,0,0,1-2-.86,3.54,3.54,0,0,1-1.23-1.16,2.13,2.13,0,0,1-.27-1.54Zm9.34,1.44c.16-.6-.32-1-1.47-1.29s-1.8,0-1.94.56q-1.17,4.92-2.33,9.85c-.15.61.29,1,1.29,1.22s1.59,0,1.76-.56Q152.53,117.18,153.88,112.29Z" transform="translate(-6 -5)"/><path d="M157.46,126.24l5.16-14a101.9,101.9,0,0,1,12.16,4.72l-.95,1.82c-2.08-1-4.18-1.86-6.32-2.67l-1.58,3.6q3,1.14,5.89,2.49c-.31.58-.61,1.17-.92,1.76q-2.84-1.32-5.76-2.43L162.32,128C160.72,127.33,159.1,126.77,157.46,126.24Z" transform="translate(-6 -5)"/><path d="M178,135.9l7.64-10.79c-1.34-.86-2.7-1.7-4.08-2.49l1-1.63a94.2,94.2,0,0,1,13,9l-1.28,1.46c-1.23-1-2.48-2-3.75-2.94l-8.29,10.33C180.82,137.82,179.41,136.83,178,135.9Z" transform="translate(-6 -5)"/><path d="M192.32,147.87l4.46-4.08c-.75-.8-1.51-1.58-2.29-2.35l-4.32,4.23q-1.87-1.84-3.86-3.54l8.53-9.41a1.71,1.71,0,0,1,1.29-.53,4.74,4.74,0,0,1,1.88.41,11.06,11.06,0,0,1,2.26,1.28,18,18,0,0,1,2.4,2.09,17.78,17.78,0,0,1,2,2.4,10.76,10.76,0,0,1,1.23,2.28,4.88,4.88,0,0,1,.37,1.89,1.64,1.64,0,0,1-.58,1.25l-9.93,8C194.65,150.45,193.5,149.13,192.32,147.87Zm9.47-8.64c.48-.43.31-1.09-.52-1.94s-1.49-1-2-.58l-3.41,3.34c.8.78,1.58,1.58,2.35,2.4Z" transform="translate(-6 -5)"/><path d="M206.84,163.74a2.24,2.24,0,0,1-1.6.25,3.93,3.93,0,0,1-1.55-.81,9.65,9.65,0,0,1-1.54-1.62c-.51-.67-1-1.41-1.54-2.23s-1-1.63-1.39-2.39a10.82,10.82,0,0,1-.85-2.11,3.86,3.86,0,0,1-.09-1.77,2.34,2.34,0,0,1,.88-1.36l7.78-6a2.06,2.06,0,0,1,1.59-.44,4.06,4.06,0,0,1,1.81.77,10.92,10.92,0,0,1,1.93,1.81,21.51,21.51,0,0,1,1.94,2.64,21.08,21.08,0,0,1,1.52,2.78,10.89,10.89,0,0,1,.78,2.45,4.2,4.2,0,0,1-.08,1.93,2.19,2.19,0,0,1-1.08,1.26l-1.76,1a1.82,1.82,0,0,1-1.94-.08,8,8,0,0,1-2.21-2.52,8.74,8.74,0,0,1,1.08,3.25,1.59,1.59,0,0,1-.75,1.63Zm5.91-10.11c.54-.34.5-1-.16-2.08s-1.27-1.36-1.81-1l-3.22,2.17.71,1.09a3.67,3.67,0,0,0,1.14,1.22,1.08,1.08,0,0,0,1.2-.07Zm-6,3.74c.82-.51.87-1.4.08-2.62-.22-.36-.46-.71-.69-1.06l-4,2.69c-.53.37-.5,1,.08,1.9s1.13,1.21,1.67.87Z" transform="translate(-6 -5)"/><path d="M208.81,175.3l4.92-1.9c.91-.34,1.11-1.25.57-2.69l-.48-1.25-6.19,2.67c-.7-1.78-1.46-3.52-2.27-5.2l11.16-5.71a1.93,1.93,0,0,1,1.64-.11,4.15,4.15,0,0,1,1.64,1.19,11.52,11.52,0,0,1,1.56,2.29,25.44,25.44,0,0,1,1.43,3.17,25.16,25.16,0,0,1,1,3.24,11.19,11.19,0,0,1,.31,2.73,4.53,4.53,0,0,1-.43,2,2.15,2.15,0,0,1-1.29,1.07l-2.37.74a1.79,1.79,0,0,1-1.9-.53,9.08,9.08,0,0,1-1.69-3.12,10,10,0,0,1,.45,3.63,1.63,1.63,0,0,1-1,1.53l-5.31,1.66Q209.74,177.95,208.81,175.3Zm12-4.61c.6-.23.69-1,.23-2.2s-1-1.7-1.59-1.44l-4,1.73c.17.42.34.85.5,1.28a4.11,4.11,0,0,0,.88,1.51,1.07,1.07,0,0,0,1.2.2Z" transform="translate(-6 -5)"/><path d="M211.15,183.28l14.67-4.09q.84,3.45,1.47,7.07l-14.9,3C212,187.25,211.62,185.24,211.15,183.28Z" transform="translate(-6 -5)"/><path d="M212.78,191.78l1.74-.3a84.12,84.12,0,0,1,12.13,6.77c-.19-2.91-.49-5.74-.89-8.51l2-.34a121,121,0,0,1,1.2,17.17h-1.79a86.26,86.26,0,0,0-11.61-8q.28,3.92.28,8h-2.07A103.1,103.1,0,0,0,212.78,191.78Z" transform="translate(-6 -5)"/><path class="cls-5" d="M125.91,5,33.25,62.17,72,75.32a143.56,143.56,0,0,1,117.64,5.26l36.8-20.38Z" transform="translate(-6 -5)"/><path class="cls-6" d="M69.4,88.46a129.28,129.28,0,0,1,124.21,4.15l11.16-24.52a142.21,142.21,0,0,0-146-3Q64.1,76.79,69.4,88.46Z" transform="translate(-6 -5)"/><line class="cls-7" x1="220.5" y1="55" x2="220.5" y2="84"/><circle class="cls-5" cx="220" cy="84" r="6"/></svg>